Coordinates
version=1
nRows=29
nColumns=22
inDegrees=yes

Units are S.I. units (second, meters, Newtons, ...)
If the header above contains a line with 'inDegrees', this indicates whether rotational values are in degrees (yes) or radians (no).

endheader
time	pelvis_tilt	pelvis_list	pelvis_rotation	pelvis_tx	pelvis_ty	pelvis_tz	hip_flexion_r	hip_adduction_r	hip_rotation_r	knee_angle_r	ankle_angle_r	subtalar_angle_r	hip_flexion_l	hip_adduction_l	hip_rotation_l	knee_angle_l	ankle_angle_l	subtalar_angle_l	lumbar_extension	lumbar_bending	lumbar_rotation
      1.24000000	     -2.35764061	     -3.16070742	     -1.53358428	     -1.21350334	      0.92112571	      0.07323246	     -0.30979257	      6.82523785	      2.74529969	    -13.15624493	     10.88427882	     -3.62592506	      1.47324472	     -8.05397286	     -8.91968491	    -18.20796964	     14.61459911	      4.44577151	     -0.86839209	     -0.44559509	     -0.36865045
      1.25000000	     -2.42690020	     -3.46110809	     -1.49665299	     -1.21198868	      0.92022225	      0.07480092	     -0.27701731	      7.25874437	      2.72656937	    -13.31369045	     11.01746235	     -3.73246720	      2.27435336	     -8.56371233	     -8.47933732	    -19.82039615	     14.99444547	      4.47622146	     -0.97255884	     -0.16381536	     -0.29249731
      1.26000000	     -2.40347886	     -3.79539485	     -1.44792005	     -1.21049518	      0.91937894	      0.07635845	     -0.34840639	      7.72506095	      2.71479350	    -13.46169989	     11.12165195	     -3.81665725	      3.10274038	     -9.09993892	     -7.94627937	    -21.66735928	     15.37593088	      4.44599494	     -1.21496606	      0.15652850	     -0.19884037
      1.27000000	     -2.42714858	     -4.12636087	     -1.38207664	     -1.20909933	      0.91840821	      0.07788266	     -0.35054769	      8.18700259	      2.66296856	    -13.62995432	     11.29552821	     -3.92821335	      4.15682673	     -9.62486106	     -7.32811592	    -23.81480563	     15.58384884	      4.33375708	     -1.43478946	      0.47404359	     -0.08837250
      1.28000000	     -2.35315953	     -4.47477603	     -1.30522572	     -1.20774178	      0.91750695	      0.07934752	     -0.44673673	      8.66161423	      2.60741528	    -13.81430759	     11.46449689	     -4.01855147	      5.24231993	    -10.14274621	     -6.62704459	    -26.20211082	     15.74650121	      4.13659769	     -1.80215584	      0.81347742	      0.04773473
      1.29000000	     -2.21665146	     -4.83049145	     -1.21162689	     -1.20643339	      0.91664961	      0.08073612	     -0.60359116	      9.13816944	      2.53058752	    -13.99850423	     11.62379611	     -4.09614440	      6.40682279	    -10.63966730	     -5.85652480	    -28.83051965	     15.75955932	      3.85811398	     -2.27565236	      1.16232898	      0.20825787
      1.30000000	     -1.96284052	     -5.18933237	     -1.09547617	     -1.20511755	      0.91590080	      0.08201568	     -0.88714138	      9.61158225	      2.45694501	    -14.17899549	     11.78386893	     -4.15190479	      7.57257090	    -11.10933189	     -5.06923301	    -31.66316451	     15.68876221	      3.55783621	     -2.91116392	      1.51944107	      0.36020252
      1.31000000	     -1.79209603	     -5.49703884	     -0.98387792	     -1.20389097	      0.91500910	      0.08319958	     -1.02204262	     10.02479699	      2.31645283	    -14.45759007	     12.03371519	     -4.23506194	      8.96861132	    -11.48637278	     -4.25608920	    -34.69413804	     15.34206823	      3.06322132	     -3.47439162	      1.82085119	      0.57173638
      1.32000000	     -1.49993481	     -5.78830427	     -0.86426247	     -1.20260289	      0.91428316	      0.08428131	     -1.29852230	     10.41377382	      2.19114480	    -14.71750698	     12.26119503	     -4.29846252	     10.30756583	    -11.81019258	     -3.47503708	    -37.80654274	     14.87669887	      2.59169825	     -4.19371792	      2.10603918	      0.78302824
      1.33000000	     -1.15980518	     -6.04073583	     -0.74218140	     -1.20124696	      0.91363712	      0.08527263	     -1.62180724	     10.75604437	      2.05974768	    -14.99145651	     12.50011253	     -4.35816966	     11.65479407	    -12.05825941	     -2.73504270	    -40.95371395	     14.25062269	      2.11831352	     -4.97435903	      2.34445457	      1.01996871
      1.34000000	     -0.78061305	     -6.23689744	     -0.62965238	     -1.19977348	      0.91309693	      0.08617640	     -1.99352786	     11.03024887	      1.91785359	    -15.26425090	     12.73872429	     -4.41449662	     12.98047114	    -12.21314775	     -2.06366111	    -44.05228085	     13.50360977	      1.68892152	     -5.79560915	      2.51751897	      1.29251368
      1.35000000	     -0.39150318	     -6.35566628	     -0.53890134	     -1.19816492	      0.91264744	      0.08701949	     -2.38107189	     11.21698677	      1.80213821	    -15.54668915	     12.99104434	     -4.47073294	     14.28890744	    -12.25981516	     -1.49066354	    -47.03819573	     12.66428532	      1.31273455	     -6.61584091	      2.59941331	      1.57257010
      1.36000000	      0.00522992	     -6.38662301	     -0.47159025	     -1.19638310	      0.91232818	      0.08781299	     -2.80364893	     11.30485903	      1.73076934	    -15.80117391	     13.22400757	     -4.51977461	     15.55065399	    -12.18787153	     -1.01894243	    -49.83546533	     11.76949551	      1.04299417	     -7.42567722	      2.57520897	      1.84907553
      1.37000000	      0.36774506	     -6.32855053	     -0.45193382	     -1.19440241	      0.91208281	      0.08858316	     -3.20043203	     11.28816307	      1.67396176	    -16.06813530	     13.48373012	     -4.56744843	     16.78817554	    -12.01297170	     -0.69457357	    -52.40074004	     10.91024266	      0.86414220	     -8.16756981	      2.44229634	      2.16768632
      1.38000000	      0.68792523	     -6.18901013	     -0.47598105	     -1.19221556	      0.91191854	      0.08934048	     -3.57489165	     11.17487748	      1.63600472	    -16.32148611	     13.73532774	     -4.61263121	     17.99784308	    -11.74944460	     -0.51091999	    -54.68936603	     10.13034646	      0.79537838	     -8.82932362	      2.21007285	      2.50674576
      1.39000000	      0.95392528	     -5.97248802	     -0.54532372	     -1.18980695	      0.91182751	      0.09008817	     -3.92116040	     10.96930284	      1.62755127	    -16.54991770	     13.97228220	     -4.65272228	     19.18107110	    -11.40956167	     -0.47198441	    -56.66706868	      9.44944523	      0.84338335	     -9.39308599	      1.88347819	      2.85764435
      1.40000000	      1.16097161	     -5.68601951	     -0.65923366	     -1.18717710	      0.91180952	      0.09083256	     -4.24063016	     10.67964478	      1.66187808	    -16.73928218	     14.18603567	     -4.68354094	     20.33647489	    -11.01050172	     -0.57869058	    -58.30824225	      8.87525246	      0.99734438	     -9.85333111	      1.47271001	      3.21483274
      1.41000000	      1.28097562	     -5.35840173	     -0.80991132	     -1.18433688	      0.91179186	      0.09157238	     -4.49648061	     10.33740230	      1.70779721	    -16.89750846	     14.40460272	     -4.71992797	     21.50257634	    -10.59113448	     -0.81416837	    -59.61383856	      8.41280243	      1.31650473	    -10.17485501	      1.01363857	      3.57869199
      1.42000000	      1.36503713	     -4.95913149	     -1.01452324	     -1.18126327	      0.91188482	      0.09232809	     -4.75914697	      9.90943798	      1.82953768	    -16.99865714	     14.55847385	     -4.72895967	     22.59413107	    -10.13148171	     -1.21231200	    -60.54158068	      8.02632238	      1.59589733	    -10.41617866	      0.46729701	      3.96616027
      1.43000000	      1.37662343	     -4.53894133	     -1.24890133	     -1.17799370	      0.91197685	      0.09308178	     -4.98375800	      9.45309118	      1.98191920	    -17.04263338	     14.70419902	     -4.73588937	     23.67699205	     -9.69295096	     -1.73556665	    -61.12240595	      7.68969275	      1.94532012	    -10.54050459	     -0.09901716	      4.35014088
      1.44000000	      1.32239375	     -4.10206901	     -1.50103692	     -1.17453756	      0.91205864	      0.09381617	     -5.17895451	      8.97698465	      2.18788916	    -17.02579666	     14.83561499	     -4.74263527	     24.73808266	     -9.26172540	     -2.32949242	    -61.35258924	      7.42019835	      2.36396837	    -10.55748383	     -0.68034909	      4.74892252
      1.45000000	      1.23720226	     -3.66363915	     -1.78983121	     -1.17089701	      0.91216754	      0.09458656	     -5.37458288	      8.49291481	      2.41394705	    -16.95968290	     14.89946879	     -4.74478945	     25.73704904	     -8.89701398	     -3.06381656	    -61.24751499	      7.13054563	      2.67495306	    -10.51221944	     -1.26283074	      5.14271323
      1.46000000	      1.11443729	     -3.23232694	     -2.08064184	     -1.16707605	      0.91225295	      0.09532844	     -5.57038337	      8.01661801	      2.67510872	    -16.83207037	     14.95094943	     -4.74732075	     26.68489028	     -8.56876404	     -3.84811088	    -60.82056300	      6.85600415	      2.94716315	    -10.39860269	     -1.82973845	      5.54950692
      1.47000000	      0.96965638	     -2.81655319	     -2.38401515	     -1.16309786	      0.91231107	      0.09605196	     -5.77413408	      7.55290130	      2.95640386	    -16.65719505	     15.00431550	     -4.75232242	     27.56229700	     -8.28929716	     -4.68262803	    -60.08944738	      6.56830132	      3.16265992	    -10.24208576	     -2.37227566	      5.97404904
      1.48000000	      0.81566661	     -2.41874384	     -2.68921644	     -1.15895938	      0.91233491	      0.09675316	     -6.00211945	      7.10683913	      3.26296652	    -16.43098941	     15.04792411	     -4.76091012	     28.35904691	     -8.05187089	     -5.54855018	    -59.07999120	      6.26605789	      3.28857133	    -10.06232916	     -2.88943422	      6.40193248
      1.49000000	      0.65914510	     -2.04973025	     -2.99378522	     -1.15466217	      0.91230822	      0.09741247	     -6.24816994	      6.68685157	      3.57392018	    -16.18174173	     15.06302714	     -4.77105274	     29.07056151	     -7.86929500	     -6.45270379	    -57.81611383	      5.93799205	      3.30432410	     -9.86905829	     -3.36375728	      6.82161948
      1.50000000	      0.50900081	     -1.70522283	     -3.29786510	     -1.15021222	      0.91222483	      0.09803401	     -6.52584865	      6.28812097	      3.89916364	    -15.89981339	     15.09345360	     -4.78181650	     29.68576132	     -7.71475366	     -7.35707452	    -56.31504669	      5.61992863	      3.22283248	     -9.67804629	     -3.80557261	      7.24517899
      1.51000000	      0.36991303	     -1.39236466	     -3.59703452	     -1.14561309	      0.91206575	      0.09858915	     -6.83176142	      5.91607074	      4.22866548	    -15.60467900	     15.12626506	     -4.79086741	     30.20871867	     -7.58665772	     -8.25160101	    -54.60850075	      5.31751203	      3.05454975	     -9.49835463	     -4.20200633	      7.65761493
      1.52000000	      0.23820614	     -1.11116935	     -3.89059917	     -1.14088089	      0.91181164	      0.09909218	     -7.15360379	      5.57190301	      4.56419420	    -15.31011522	     15.16340453	     -4.79504822	     30.64916679	     -7.47798876	     -9.12613672	    -52.71953477	      5.03994910	      2.82141771	     -9.33142775	     -4.55930871	      8.05803218
